<mxfile host="65bd71144e">
    <diagram id="eFZ0ssfMTJGswuBtWFSw" name="Page-1">
        <mxGraphModel dx="492" dy="464" grid="1" gridSize="10" guides="1" tooltips="1" connect="1" arrows="1" fold="1" page="1" pageScale="1" pageWidth="850" pageHeight="1100" math="0" shadow="0">
            <root>
                <mxCell id="0"/>
                <mxCell id="1" parent="0"/>
                <mxCell id="30" style="edgeStyle=none;html=1;fontColor=#F0F0F0;" edge="1" parent="1" source="2">
                    <mxGeometry relative="1" as="geometry">
                        <mxPoint x="200" y="45" as="targetPoint"/>
                    </mxGeometry>
                </mxCell>
                <mxCell id="2" value="" style="aspect=fixed;perimeter=ellipsePerimeter;html=1;align=center;shadow=0;dashed=0;spacingTop=3;image;image=img/lib/active_directory/internet_cloud.svg;" vertex="1" parent="1">
                    <mxGeometry x="20" y="10" width="111.11" height="70" as="geometry"/>
                </mxCell>
                <mxCell id="3" value="V" style="verticalLabelPosition=bottom;html=1;verticalAlign=top;align=center;strokeColor=none;fillColor=#00BEF2;shape=mxgraph.azure.computer;pointerEvents=1;" vertex="1" parent="1">
                    <mxGeometry x="50" y="149.1" width="450.6" height="360" as="geometry"/>
                </mxCell>
                <mxCell id="5" value="" style="points=[];aspect=fixed;html=1;align=center;shadow=0;dashed=0;image;image=img/lib/allied_telesis/computer_and_terminals/Personal_Computer.svg;" vertex="1" parent="1">
                    <mxGeometry x="354.4" y="200" width="45.6" height="61.800000000000004" as="geometry"/>
                </mxCell>
                <mxCell id="7" value="" style="points=[];aspect=fixed;html=1;align=center;shadow=0;dashed=0;image;image=img/lib/allied_telesis/computer_and_terminals/Personal_Computer.svg;" vertex="1" parent="1">
                    <mxGeometry x="150" y="200" width="45.6" height="61.800000000000004" as="geometry"/>
                </mxCell>
                <mxCell id="31" style="edgeStyle=none;html=1;fontColor=#F0F0F0;" edge="1" parent="1" source="8">
                    <mxGeometry relative="1" as="geometry">
                        <mxPoint x="400" y="40" as="targetPoint"/>
                    </mxGeometry>
                </mxCell>
                <mxCell id="8" value="" style="aspect=fixed;perimeter=ellipsePerimeter;html=1;align=center;shadow=0;dashed=0;spacingTop=3;image;image=img/lib/active_directory/shadowed_router.svg;" vertex="1" parent="1">
                    <mxGeometry x="220.39999999999998" y="10" width="49.2" height="60" as="geometry"/>
                </mxCell>
                <mxCell id="26" style="edgeStyle=none;html=1;exitX=1;exitY=0.25;exitDx=0;exitDy=0;entryX=0.049;entryY=-0.138;entryDx=0;entryDy=0;entryPerimeter=0;fontColor=#F0F0F0;" edge="1" parent="1" source="9" target="13">
                    <mxGeometry relative="1" as="geometry"/>
                </mxCell>
                <mxCell id="27" style="edgeStyle=none;html=1;exitX=0;exitY=0.25;exitDx=0;exitDy=0;entryX=0.968;entryY=0.967;entryDx=0;entryDy=0;entryPerimeter=0;fontColor=#F0F0F0;" edge="1" parent="1" source="9" target="7">
                    <mxGeometry relative="1" as="geometry"/>
                </mxCell>
                <mxCell id="9" value="" style="aspect=fixed;perimeter=ellipsePerimeter;html=1;align=center;shadow=0;dashed=0;spacingTop=3;image;image=img/lib/active_directory/shadowed_router.svg;" vertex="1" parent="1">
                    <mxGeometry x="234.29999999999998" y="291.8" width="41" height="50" as="geometry"/>
                </mxCell>
                <mxCell id="25" style="edgeStyle=none;html=1;entryX=0.655;entryY=0.955;entryDx=0;entryDy=0;entryPerimeter=0;fontColor=#F0F0F0;" edge="1" parent="1" source="10" target="11">
                    <mxGeometry relative="1" as="geometry"/>
                </mxCell>
                <mxCell id="10" value="Juan Miguel's Computer" style="text;html=1;align=center;verticalAlign=middle;resizable=0;points=[];autosize=1;strokeColor=none;fillColor=none;" vertex="1" parent="1">
                    <mxGeometry x="195.3" y="410" width="150" height="30" as="geometry"/>
                </mxCell>
                <mxCell id="11" value="Virtual Router&lt;br&gt;pfSense" style="text;html=1;align=center;verticalAlign=middle;resizable=0;points=[];autosize=1;strokeColor=none;fillColor=none;fontColor=#F0F0F0;" vertex="1" parent="1">
                    <mxGeometry x="204.8" y="341.8" width="100" height="40" as="geometry"/>
                </mxCell>
                <mxCell id="12" value="VM 1" style="text;html=1;align=center;verticalAlign=middle;resizable=0;points=[];autosize=1;strokeColor=none;fillColor=none;fontColor=#F0F0F0;" vertex="1" parent="1">
                    <mxGeometry x="150" y="261.8" width="50" height="30" as="geometry"/>
                </mxCell>
                <mxCell id="13" value="VM 2" style="text;html=1;align=center;verticalAlign=middle;resizable=0;points=[];autosize=1;strokeColor=none;fillColor=none;fontColor=#F0F0F0;" vertex="1" parent="1">
                    <mxGeometry x="350" y="261.8" width="50" height="30" as="geometry"/>
                </mxCell>
                <mxCell id="28" style="edgeStyle=none;html=1;fontColor=#F0F0F0;" edge="1" parent="1">
                    <mxGeometry relative="1" as="geometry">
                        <mxPoint x="240" y="100" as="sourcePoint"/>
                        <mxPoint x="240" y="140" as="targetPoint"/>
                        <Array as="points">
                            <mxPoint x="240" y="100"/>
                        </Array>
                    </mxGeometry>
                </mxCell>
                <mxCell id="14" value="Router" style="text;html=1;align=center;verticalAlign=middle;resizable=0;points=[];autosize=1;strokeColor=none;fillColor=none;fontColor=#F0F0F0;" vertex="1" parent="1">
                    <mxGeometry x="215.00000000000003" y="70" width="60" height="30" as="geometry"/>
                </mxCell>
                <mxCell id="17" value="Internet&amp;nbsp;" style="text;html=1;align=center;verticalAlign=middle;resizable=0;points=[];autosize=1;strokeColor=none;fillColor=none;fontColor=#F0F0F0;" vertex="1" parent="1">
                    <mxGeometry x="40.55" y="80" width="70" height="30" as="geometry"/>
                </mxCell>
                <mxCell id="18" value="Juan's Laptop&lt;br&gt;Computer" style="text;html=1;align=center;verticalAlign=middle;resizable=0;points=[];autosize=1;strokeColor=none;fillColor=none;fontColor=#F0F0F0;" vertex="1" parent="1">
                    <mxGeometry x="390" y="70" width="100" height="40" as="geometry"/>
                </mxCell>
                <mxCell id="20" value="" style="verticalLabelPosition=bottom;html=1;verticalAlign=top;align=center;strokeColor=none;fillColor=#00BEF2;shape=mxgraph.azure.laptop;pointerEvents=1;labelBackgroundColor=#050505;fontColor=#F0F0F0;" vertex="1" parent="1">
                    <mxGeometry x="415" y="30" width="50" height="30" as="geometry"/>
                </mxCell>
            </root>
        </mxGraphModel>
    </diagram>
</mxfile>